HIERARCHY
ROOT Hips
{
	OFFSET 0.000000 0.000000 0.000000
	CHANNELS 6 Xposition Yposition Zposition Zrotation Yrotation Xrotation 
	JOINT LeftUpLeg_virtual
	{
		OFFSET 0.000000 0.000000 0.000000
		CHANNELS 3 Zrotation Yrotation Xrotation
		JOINT LeftUpLeg
		{
			OFFSET 8.479694 -4.795517 -0.379053
			CHANNELS 3 Zrotation Yrotation Xrotation
			JOINT LeftLeg
			{
				OFFSET 0.485052 -32.551468 0.112863
				CHANNELS 3 Zrotation Yrotation Xrotation
				JOINT LeftFoot
				{
					OFFSET 0.438033 -32.635670 -3.012641
					CHANNELS 3 Zrotation Yrotation Xrotation
					JOINT LeftToeBase
					{
						OFFSET 0.970169 -13.225353 11.864223
						CHANNELS 3 Zrotation Yrotation Xrotation
						End Site
						{
							OFFSET 0.000000 0.000000 0.000000
						}
					}
				}
			}
		}
	}
	JOINT RightUpLeg_virtual
	{
		OFFSET 0.000000 0.000000 0.000000
		CHANNELS 3 Zrotation Yrotation Xrotation
		JOINT RightUpLeg
		{
			OFFSET -8.479694 -4.795517 -0.379053
			CHANNELS 3 Zrotation Yrotation Xrotation
			JOINT RightLeg
			{
				OFFSET -0.484100 -32.551483 0.112903
				CHANNELS 3 Zrotation Yrotation Xrotation
				JOINT RightFoot
				{
					OFFSET -0.438985 -32.635651 -3.012681
					CHANNELS 3 Zrotation Yrotation Xrotation
					JOINT RightToeBase
					{
						OFFSET -0.970169 -13.225354 11.864223
						CHANNELS 3 Zrotation Yrotation Xrotation
						End Site
						{
							OFFSET 0.000000 0.000000 0.000000
						}
					}
				}
			}
		}
	}
	JOINT Spine_virtual
	{
		OFFSET 0.000000 0.000000 0.000000
		CHANNELS 3 Zrotation Yrotation Xrotation
		JOINT Spine
		{
			OFFSET 0.000000 7.722015 1.166203
			CHANNELS 3 Zrotation Yrotation Xrotation
			JOINT Spine1
			{
				OFFSET 0.000000 12.024086 0.248766
				CHANNELS 3 Zrotation Yrotation Xrotation
				JOINT Spine2
				{
					OFFSET -0.000000 11.503036 -0.491240
					CHANNELS 3 Zrotation Yrotation Xrotation
					JOINT Neck_virtual
					{
						OFFSET 0.000000 0.000000 0.000000
						CHANNELS 3 Zrotation Yrotation Xrotation
						JOINT Neck
						{
							OFFSET 0.000000 18.430687 -3.123054
							CHANNELS 3 Zrotation Yrotation Xrotation
							JOINT Head
							{
								OFFSET -0.000000 9.051071 1.034021
								CHANNELS 3 Zrotation Yrotation Xrotation
								End Site
								{
									OFFSET 0.000000 0.000000 0.000000
								}
							}
						}
					}
					JOINT LeftShoulder_virtual
					{
						OFFSET 0.000000 0.000000 0.000000
						CHANNELS 3 Zrotation Yrotation Xrotation
						JOINT LeftShoulder
						{
							OFFSET 6.197824 13.665230 -4.064723
							CHANNELS 3 Zrotation Yrotation Xrotation
							JOINT LeftArm
							{
								OFFSET 7.778132 -0.187073 -1.709282
								CHANNELS 3 Zrotation Yrotation Xrotation
								JOINT LeftForeArm
								{
									OFFSET 21.954697 0.000000 -2.041093
									CHANNELS 3 Zrotation Yrotation Xrotation
									JOINT LeftHand
									{
										OFFSET 22.992908 0.000000 -0.870901
										CHANNELS 3 Zrotation Yrotation Xrotation
										End Site
										{
											OFFSET 0.000000 0.000000 0.000000
										}
									}
								}
							}
						}
					}
					JOINT RightShoulder_virtual
					{
						OFFSET 0.000000 0.000000 0.000000
						CHANNELS 3 Zrotation Yrotation Xrotation
						JOINT RightShoulder
						{
							OFFSET -6.197824 13.665230 -4.064723
							CHANNELS 3 Zrotation Yrotation Xrotation
							JOINT RightArm
							{
								OFFSET -7.778132 -0.187073 -1.709282
								CHANNELS 3 Zrotation Yrotation Xrotation
								JOINT RightForeArm
								{
									OFFSET -21.954697 0.000000 -2.041093
									CHANNELS 3 Zrotation Yrotation Xrotation
									JOINT RightHand
									{
										OFFSET -22.992908 0.000000 -0.870901
										CHANNELS 3 Zrotation Yrotation Xrotation
										End Site
										{
											OFFSET 0.000000 0.000000 0.000000
										}
									}
								}
							}
						}
					}
				}
			}
		}
	}
}
MOTION
Frames: 4
Frame Time: 0.033333
61.811913 80.339081 -16.349861 -179.644029 -4.914975 179.901213 -3.578769 5.784877 11.039239 -4.291419 -10.561864 -19.475883 5.334283 5.564595 28.980448 0.211015 -15.102274 -15.473493 0.000000 0.000000 0.000000 1.576710 3.312076 10.727255 -1.265107 4.852351 -39.172764 -1.722907 3.405037 32.938546 11.355669 12.681998 -1.025864 0.000000 0.000000 0.000000 1.414989 5.152442 0.353402 -0.021342 -4.353223 -2.901384 0.469571 -2.133610 7.054117 -0.086901 -0.173109 -0.015409 0.177074 -0.689406 8.253485 -7.536247 -0.024612 -4.571545 0.000000 0.000000 0.000000 1.523123 -0.022911 5.612975 -8.822963 -7.638872 1.778475 -53.736233 -4.821369 26.482394 -4.725922 -26.804341 5.124335 0.000000 0.000000 0.000000 -2.548910 1.550434 4.589634 25.013022 2.266409 3.069118 56.569775 -7.688545 7.529390 -154.487623 80.272208 -158.242615 0.000000 0.000000 0.000000 
61.316288 79.864410 -19.444323 -179.614796 -6.559257 179.916964 -3.335860 6.267499 11.355171 -4.076321 -10.260478 -17.706480 4.721290 5.476473 30.054711 0.559305 -16.255884 -17.311495 0.000000 0.000000 0.000000 1.497561 3.049982 10.428736 -0.054163 5.527226 -40.164880 -2.309027 2.352734 25.849326 11.688428 11.739736 0.615927 0.000000 0.000000 0.000000 1.553822 4.803197 0.155219 0.392079 -4.145621 -3.305456 0.323705 -2.078503 6.952496 -0.056459 -0.225191 0.001038 -0.162122 -0.653289 8.143771 -7.860751 0.100952 -3.883379 0.000000 0.000000 0.000000 1.278079 0.041810 5.381969 -9.353537 -7.851989 2.246392 -53.252570 -7.844471 22.948450 -5.500174 -27.110226 5.007292 0.000000 0.000000 0.000000 -2.864787 1.659938 4.410600 25.996579 2.377648 2.931826 56.422386 -4.395840 7.120603 -157.602490 79.475350 -161.824735 0.000000 0.000000 0.000000 
60.822063 79.383224 -22.707592 -179.760457 -8.105350 -179.941347 -3.135759 5.255916 11.922490 -3.487278 -10.493192 -16.170485 3.814306 4.342910 31.118922 -0.436866 -18.493067 -18.480197 0.000000 0.000000 0.000000 1.319661 2.984333 10.284069 1.075071 5.954476 -40.721721 -2.618216 1.977461 22.105125 11.685727 11.128428 1.345663 0.000000 0.000000 0.000000 1.595440 4.547198 0.060840 0.673494 -3.850341 -4.016529 0.109350 -2.119840 6.773334 -0.044997 -0.262589 0.001912 -0.353401 -0.493112 8.027806 -8.137144 0.000408 -3.244253 0.000000 0.000000 0.000000 1.081129 0.275604 5.161199 -9.821562 -7.908326 2.760321 -53.325988 -9.936697 20.168580 -6.177498 -27.483744 4.978134 0.000000 0.000000 0.000000 -3.047677 1.856953 4.336004 26.900659 2.708782 2.856772 56.184754 -1.053150 6.993966 -159.594651 78.875018 -164.105513 0.000000 0.000000 0.000000 
60.343983 78.953667 -26.178595 -179.821901 -9.952784 -179.908863 -3.046258 4.158355 12.403945 -2.624826 -10.701989 -14.966246 2.743492 2.877944 32.449184 -1.957717 -20.440214 -18.121277 0.000000 0.000000 0.000000 0.960868 2.881869 10.434181 2.090509 6.456729 -40.687447 -2.747422 2.274490 22.191449 11.453233 10.802033 1.781728 0.000000 0.000000 0.000000 1.669401 4.272100 0.117421 0.900486 -3.670741 -4.809974 -0.052950 -1.854931 6.652071 -0.063299 -0.066903 0.032246 -0.366635 -0.343023 7.866239 -8.183860 -0.213024 -2.574830 0.000000 0.000000 0.000000 0.993373 0.269274 4.980476 -10.151299 -8.081943 3.341386 -53.954967 -11.141817 18.658053 -6.489026 -27.898799 4.747027 0.000000 0.000000 0.000000 -3.211855 1.882888 4.099576 27.718723 2.758795 2.853082 56.340257 1.868045 7.106891 -160.235965 78.153039 -164.971786 0.000000 0.000000 0.000000 
